<svg width="375" height="360" viewBox="0 0 375 360" fill="none" xmlns="http://www.w3.org/2000/svg">
<g clip-path="url(#clip0_5851_27188)">
<path d="M240.59 310.02C240.39 310.03 240.43 310.03 240.59 310.02V310.02Z" fill="#F2A100"/>
<path d="M330.4 179.7C330.4 100.89 266.51 37 187.7 37C108.89 37 45 100.89 45 179.7C45 243.88 87.37 298.16 145.67 316.1L132.92 201.75C132.92 201.75 128 190.59 138.83 183.33L160.57 177.89L195.29 175.76L214.41 169.37L236.28 173.03C236.28 173.03 247.39 174.01 245.75 181.4L243.06 311.26C294.38 289.64 330.4 238.88 330.4 179.7Z" fill="#CBE0EB"/>
<path d="M236.27 173.02L214.4 169.37L195.28 175.76L160.56 177.89L138.82 183.33C128 190.59 132.91 201.75 132.91 201.75L145.66 316.1C158.95 320.19 173.06 322.39 187.69 322.39C207.32 322.39 226.02 318.42 243.05 311.25L245.74 181.39C247.38 174 236.27 173.01 236.27 173.01V173.02Z" fill="#F2A100"/>
<path d="M206.38 159.32C206.38 159.32 188.12 156.51 164.58 164.39L195.28 175.77L206.38 159.32Z" fill="#D3CEC9"/>
<path d="M169.86 126.01L165.7 176.18L208.51 180.02L203.33 126.57L169.86 126.01Z" fill="#90473D"/>
<path d="M182.09 149.82L206.38 165.32L205.99 145.49L182.09 149.81V149.82Z" fill="#90473D"/>
<path d="M174.96 155.37L208.52 150.88C217.11 149.71 220.13 145.24 221.53 142.44C224.35 136.8 222.74 129.11 222.74 129.11L214.41 89.55C214.41 89.55 209.68 66.23 172.98 81.13C172.98 81.13 143.09 75.27 147.34 99.39L165.79 134.3L174.97 155.35L174.96 155.37Z" fill="#90473D"/>
<path d="M145 310.04L143.08 293.15C143.71 277.85 145.9 245.05 146.91 239.56L150.35 258.02L145.01 310.04H145Z" fill="#B15D90"/>
<path d="M160.57 177.9L190.29 192.66L195.29 175.77L203.53 189.96L214.41 169.38L195.29 175.77L160.57 177.9Z" fill="#DF8D00"/>
<path d="M195.28 175.77L190.12 187.43L160.56 177.9L164.57 164.4L195.27 175.77H195.28Z" fill="white"/>
<path d="M145 310.04L143.08 293.15L162.09 243.13L161.1 264.84C161.1 264.84 160.38 283.4 157.86 290.98C153.25 304.91 145 310.04 145 310.04Z" fill="#DF8D00"/>
<path d="M206.38 159.32L195.28 175.77L203.35 184.57L214.4 169.38L206.38 159.32Z" fill="white"/>
<path d="M113.41 261.52L115.86 279.2C120.75 306.67 137.49 304.91 137.49 304.91C151.85 304.91 155.57 280.59 155.57 280.59L158.08 256.96L113.4 261.53L113.41 261.52Z" fill="#F2A100"/>
<path d="M164.03 221.48L158.65 216.88L156.31 239.14L164.03 221.48Z" fill="#D3CEC9"/>
<path d="M125.04 170.82L129.73 146.98C142.82 147.72 162.85 211.91 162.85 211.91C162.85 211.91 159.5 248.46 137.7 253.93C130.25 255.81 127.73 254.28 127.73 254.28C120.7 254.44 106.85 248.95 100.37 234.64" fill="#90473D"/>
<path d="M141.94 241.3L90.67 245.14C85.37 245.54 80.75 241.56 80.35 236.26L71.43 120.56C71.03 115.26 75.01 110.64 80.31 110.24L131.58 106.4C136.88 106 141.5 109.98 141.9 115.28L150.82 230.98C151.22 236.28 147.24 240.9 141.94 241.3Z" fill="#484747"/>
<path d="M90.0101 240.01C87.6501 240.05 85.6701 238.23 85.4901 235.88L76.5701 120.17C76.4801 118.99 76.8601 117.84 77.6401 116.93C78.4201 116.02 79.5001 115.48 80.7001 115.39L131.97 111.55C132.06 111.55 132.15 111.54 132.24 111.54C134.6 111.5 136.58 113.32 136.76 115.67L145.69 231.38C145.87 233.83 144.02 235.98 141.56 236.16L90.2901 240C90.2001 240 90.1101 240.01 90.0201 240.01H90.0101Z" fill="#E6E1DE"/>
<path d="M87.46 209.63L82.84 162.66C82.08 152.85 73.05 152.74 73.05 152.74C64.18 152.9 63.97 162.77 63.97 162.77L64.09 213.61C64.09 213.61 63.39 227.07 77.19 226.8C90.46 226.54 87.46 209.64 87.46 209.64V209.63Z" fill="#90473D"/>
<path d="M139.77 148.32C144.84 148.32 148.94 144.21 148.94 139.15C148.94 134.09 144.83 129.98 139.77 129.98C134.71 129.98 130.6 134.09 130.6 139.15C130.6 144.21 134.71 148.32 139.77 148.32Z" fill="#90473D"/>
<path d="M140.86 170.25L131.26 142.57L148.28 135.73L158.65 161.52L140.86 170.25Z" fill="#90473D"/>
<path d="M108.81 251.44L111.57 246.79L114.33 258.46L108.81 251.44Z" fill="#D3CEC9"/>
<path d="M140.86 170.25C140.86 170.25 128.39 199.61 151.39 219.78L159.34 222.64C165.29 211.97 163.89 192.04 163.89 192.04L161.67 174.05C161.67 174.05 160.74 166.72 158.62 161.45L140.87 170.25H140.86Z" fill="#90473D"/>
<path d="M110.2 245.77L111.74 260.7H123.1L127.27 248.61L110.2 245.77Z" fill="#90473D"/>
<path d="M108.81 251.44L113.68 274.19C113.68 274.19 136.58 287.07 159.63 264.7L164.02 221.49C164.02 221.49 146.79 262.68 108.8 251.45L108.81 251.44Z" fill="white"/>
<path d="M214.4 169.38L233.43 164.01C233.43 164.01 247.6 160.2 260.99 172.23C260.99 172.23 306.17 224.63 310.48 230.51C317.77 240.48 310.14 249.18 310.14 249.18L285.83 277.03L276 252.29L281.57 246.13L241.24 211.03L214.42 169.39L214.4 169.38Z" fill="#F2A100"/>
<path d="M267.07 262.81L249.22 275.79C249.22 275.79 245.19 278.46 243.76 282.45C243.76 282.45 242.24 284.64 242.45 291.61L243.29 312.25C243.29 312.25 243.04 318.02 248.85 317.13C248.85 317.13 253.46 316.73 253.17 311.07L252.95 302.21C252.95 302.21 252.93 299.21 254.99 297.55C254.99 297.55 257.1 295.08 261.2 294.67C261.2 294.67 268.8 294.03 273.23 284.26L279.23 279.14L268.26 262.98L267.08 262.79L267.07 262.81Z" fill="#90473D"/>
<path d="M275.99 252.27L265.4 262.86L275.45 288.18L287.25 276.53L276 252.27H275.99Z" fill="white"/>
<path d="M160.68 99.81C160.68 99.81 162.3 114.23 161.26 123.89L156.17 126.18C156.17 126.18 147.86 109.5 146.29 93.24L160.69 99.81H160.68Z" fill="#281713"/>
<path d="M146.27 93.24L160.78 100.84C160.78 100.84 200.73 102.69 219.96 93.45C219.96 93.45 236.73 85.63 230.55 59.94C230.55 59.94 229.49 53.77 222.71 55.47L171.3 67.76C171.3 67.76 152.56 72.18 148.38 81.58C148.38 81.58 145.68 86.85 146.28 93.24H146.27Z" fill="#281713"/>
<path d="M161.16 143.41C166.62 143.41 171.05 138.98 171.05 133.52C171.05 128.06 166.62 123.63 161.16 123.63C155.7 123.63 151.27 128.06 151.27 133.52C151.27 138.98 155.7 143.41 161.16 143.41Z" fill="#90473D"/>
<path d="M164.58 125.55C164.58 125.55 176.52 131.27 188.38 129.9L221.84 124.85L222.74 129.11C222.74 129.11 227.44 149.48 207.43 151.38L185.41 154.31C185.41 154.31 167.14 158.2 165.04 129.62L164.58 125.54V125.55Z" fill="#6B2F2B"/>
<path d="M179.1 143.41C179.1 143.41 182.2 137.41 188.85 137.32C195.5 137.23 198.75 142.42 198.75 142.42" stroke="#330F0E" stroke-width="2" stroke-miterlimit="10" stroke-linecap="round"/>
<path d="M110.59 194.85C123.436 194.85 133.85 184.436 133.85 171.59C133.85 158.744 123.436 148.33 110.59 148.33C97.7439 148.33 87.3301 158.744 87.3301 171.59C87.3301 184.436 97.7439 194.85 110.59 194.85Z" fill="#DE2747"/>
<path d="M110.4 160.243L108.556 160.394C108.149 160.428 107.846 160.785 107.879 161.192L109.045 175.365C109.078 175.772 109.435 176.075 109.843 176.041L111.687 175.89C112.094 175.856 112.397 175.499 112.363 175.092L111.198 160.919C111.165 160.512 110.807 160.209 110.4 160.243Z" fill="white"/>
<path d="M111.04 181.81C110.96 181.81 110.89 181.81 110.81 181.8C110.21 181.74 109.67 181.45 109.29 180.99C108.91 180.53 108.73 179.94 108.79 179.34C108.85 178.74 109.14 178.2 109.6 177.83C110.07 177.45 110.66 177.27 111.25 177.33C112.48 177.45 113.39 178.56 113.26 179.79C113.2 180.39 112.91 180.93 112.45 181.31C112.05 181.64 111.55 181.82 111.03 181.82L111.04 181.81Z" fill="white"/>
<path d="M197.52 179.62L195.28 175.77L194.16 179.56L196.18 179.87L197.52 179.62Z" fill="#F2A100"/>
</g>
<defs>
<clipPath id="clip0_5851_27188">
<rect width="285.4" height="285.4" fill="white" transform="translate(45 37)"/>
</clipPath>
</defs>
</svg>
